<svg width="26" height="26" viewBox="0 0 26 26" fill="none" xmlns="http://www.w3.org/2000/svg">
<path d="M13.7693 12.2309C13.6663 12.1322 13.5448 12.0549 13.4118 12.0034C13.1481 11.895 12.8522 11.895 12.5885 12.0034C12.4555 12.0549 12.334 12.1322 12.231 12.2309L10.0643 14.3975C9.86033 14.6015 9.74573 14.8782 9.74573 15.1667C9.74573 15.4552 9.86033 15.7319 10.0643 15.9359C10.2683 16.1398 10.545 16.2545 10.8335 16.2545C11.122 16.2545 11.3987 16.1398 11.6027 15.9359L11.9168 15.6109V18.4167C11.9168 18.704 12.031 18.9796 12.2341 19.1827C12.4373 19.3859 12.7128 19.5 13.0002 19.5C13.2875 19.5 13.563 19.3859 13.7662 19.1827C13.9694 18.9796 14.0835 18.704 14.0835 18.4167V15.6109L14.3977 15.9359C14.4984 16.0374 14.6182 16.118 14.7502 16.173C14.8822 16.228 15.0238 16.2563 15.1668 16.2563C15.3098 16.2563 15.4514 16.228 15.5835 16.173C15.7155 16.118 15.8353 16.0374 15.936 15.9359C16.0375 15.8351 16.1181 15.7153 16.1731 15.5833C16.2281 15.4513 16.2564 15.3097 16.2564 15.1667C16.2564 15.0237 16.2281 14.8821 16.1731 14.7501C16.1181 14.618 16.0375 14.4982 15.936 14.3975L13.7693 12.2309ZM21.6668 9.68502C21.6555 9.5855 21.6338 9.48745 21.6018 9.39252V9.29502C21.5497 9.18363 21.4803 9.08124 21.396 8.99169L14.896 2.49169C14.8064 2.40742 14.7041 2.33794 14.5927 2.28585H14.4843C14.379 2.22952 14.2658 2.18935 14.1485 2.16669H7.5835C6.72154 2.16669 5.89489 2.5091 5.2854 3.11859C4.67591 3.72808 4.3335 4.55473 4.3335 5.41669V20.5834C4.3335 21.4453 4.67591 22.272 5.2854 22.8815C5.89489 23.4909 6.72154 23.8334 7.5835 23.8334H18.4168C19.2788 23.8334 20.1054 23.4909 20.7149 22.8815C21.3244 22.272 21.6668 21.4453 21.6668 20.5834V9.75002C21.6668 9.75002 21.6668 9.75002 21.6668 9.68502ZM15.1668 5.86085L17.9727 8.66669H16.2502C15.9628 8.66669 15.6873 8.55255 15.4841 8.34939C15.281 8.14622 15.1668 7.87067 15.1668 7.58335V5.86085ZM19.5002 20.5834C19.5002 20.8707 19.386 21.1462 19.1829 21.3494C18.9797 21.5526 18.7041 21.6667 18.4168 21.6667H7.5835C7.29618 21.6667 7.02063 21.5526 6.81746 21.3494C6.6143 21.1462 6.50016 20.8707 6.50016 20.5834V5.41669C6.50016 5.12937 6.6143 4.85382 6.81746 4.65066C7.02063 4.44749 7.29618 4.33335 7.5835 4.33335H13.0002V7.58335C13.0002 8.44531 13.3426 9.27196 13.9521 9.88145C14.5616 10.4909 15.3882 10.8334 16.2502 10.8334H19.5002V20.5834Z" fill="#0061FF"/>
</svg>
