<svg width="20" height="20" viewBox="0 0 20 20" fill="none" xmlns="http://www.w3.org/2000/svg">
<path d="M18.0928 16.9075L15.0011 13.8409C16.2012 12.3445 16.7824 10.4453 16.6252 8.5336C16.4679 6.62194 15.5842 4.84317 14.1557 3.56306C12.7273 2.28294 10.8626 1.59878 8.94524 1.65125C7.02784 1.70371 5.20341 2.48882 3.84709 3.84514C2.49078 5.20146 1.70567 7.02589 1.6532 8.94329C1.60073 10.8607 2.2849 12.7253 3.56501 14.1538C4.84513 15.5822 6.62389 16.466 8.53556 16.6232C10.4472 16.7804 12.3465 16.1993 13.8428 14.9992L16.9095 18.0659C16.9869 18.144 17.0791 18.206 17.1807 18.2483C17.2822 18.2906 17.3911 18.3124 17.5011 18.3124C17.6112 18.3124 17.7201 18.2906 17.8216 18.2483C17.9232 18.206 18.0153 18.144 18.0928 18.0659C18.243 17.9105 18.327 17.7028 18.327 17.4867C18.327 17.2706 18.243 17.0629 18.0928 16.9075ZM9.16781 14.9992C8.01408 14.9992 6.88627 14.6571 5.92698 14.0161C4.96769 13.3751 4.22002 12.4641 3.77851 11.3982C3.337 10.3323 3.22148 9.15938 3.44656 8.02783C3.67164 6.89627 4.22721 5.85687 5.04302 5.04107C5.85882 4.22526 6.89823 3.66969 8.02978 3.44461C9.16134 3.21953 10.3342 3.33505 11.4001 3.77656C12.466 4.21807 13.3771 4.96574 14.018 5.92503C14.659 6.88432 15.0011 8.01213 15.0011 9.16585C15.0011 10.713 14.3866 12.1967 13.2926 13.2906C12.1986 14.3846 10.7149 14.9992 9.16781 14.9992Z" fill="#262B35"/>
</svg>
