<svg width="20" height="20" viewBox="0 0 20 20" fill="none" xmlns="http://www.w3.org/2000/svg">
<path d="M18.2662 9.66665C16.5829 5.75831 13.4162 3.33331 9.99957 3.33331C6.5829 3.33331 3.41623 5.75831 1.7329 9.66665C1.68701 9.77178 1.66333 9.88526 1.66333 9.99998C1.66333 10.1147 1.68701 10.2282 1.7329 10.3333C3.41623 14.2416 6.5829 16.6666 9.99957 16.6666C13.4162 16.6666 16.5829 14.2416 18.2662 10.3333C18.3121 10.2282 18.3358 10.1147 18.3358 9.99998C18.3358 9.88526 18.3121 9.77178 18.2662 9.66665ZM9.99957 15C7.3579 15 4.8579 13.0916 3.41623 9.99998C4.8579 6.90831 7.3579 4.99998 9.99957 4.99998C12.6412 4.99998 15.1412 6.90831 16.5829 9.99998C15.1412 13.0916 12.6412 15 9.99957 15ZM9.99957 6.66665C9.3403 6.66665 8.69583 6.86214 8.14767 7.22841C7.5995 7.59469 7.17226 8.11528 6.91997 8.72437C6.66768 9.33345 6.60167 10.0037 6.73028 10.6503C6.8589 11.2969 7.17637 11.8908 7.64254 12.357C8.10872 12.8232 8.70266 13.1406 9.34927 13.2693C9.99587 13.3979 10.6661 13.3319 11.2752 13.0796C11.8843 12.8273 12.4049 12.4 12.7711 11.8519C13.1374 11.3037 13.3329 10.6593 13.3329 9.99998C13.3329 9.11592 12.9817 8.26808 12.3566 7.64296C11.7315 7.01784 10.8836 6.66665 9.99957 6.66665ZM9.99957 11.6666C9.66993 11.6666 9.3477 11.5689 9.07362 11.3858C8.79954 11.2026 8.58591 10.9423 8.45977 10.6378C8.33362 10.3332 8.30062 9.99813 8.36492 9.67483C8.42923 9.35153 8.58797 9.05456 8.82106 8.82147C9.05414 8.58838 9.35112 8.42965 9.67442 8.36534C9.99772 8.30103 10.3328 8.33403 10.6374 8.46018C10.9419 8.58633 11.2022 8.79995 11.3853 9.07403C11.5685 9.34811 11.6662 9.67034 11.6662 9.99998C11.6662 10.442 11.4906 10.8659 11.1781 11.1785C10.8655 11.4911 10.4416 11.6666 9.99957 11.6666Z" fill="#BAC1CE"/>
</svg>
