<svg width="24" height="24" viewBox="0 0 24 24" fill="none" xmlns="http://www.w3.org/2000/svg">
<path d="M19.44 8.70968V8.75183L19.4661 8.82938C19.4817 8.8757 19.493 8.92332 19.5 8.97165V8.97182V8.97203V8.97224V8.97245V8.97266V8.97287V8.97307V8.97328V8.97348V8.97369V8.97389V8.97409V8.97429V8.97449V8.97469V8.97488V8.97508V8.97528V8.97547V8.97566V8.97586V8.97605V8.97624V8.97643V8.97661V8.9768V8.97699V8.97717V8.97736V8.97754V8.97772V8.9779V8.97808V8.97826V8.97844V8.97862V8.97879V8.97897V8.97914V8.97932V8.97949V8.97966V8.97983V8.98V8.98017V8.98034V8.9805V8.98067V8.98083V8.981V8.98116V8.98132V8.98148V8.98164V8.9818V8.98196V8.98212V8.98227V8.98243V8.98258V8.98274V8.98289V8.98304V8.98319V8.98334V8.98349V8.98364V8.98379V8.98393V8.98408V8.98422V8.98437V8.98451V8.98465V8.9848V8.98494V8.98507V8.98521V8.98535V8.98549V8.98562V8.98576V8.98589V8.98603V8.98616V8.98629V8.98642V8.98655V8.98668V8.98681V8.98694V8.98706V8.98719V8.98732V8.98744V8.98756V8.98769V8.98781V8.98793V8.98805V8.98817V8.98829V8.98841V8.98852V8.98864V8.98876V8.98887V8.98898V8.9891V8.98921V8.98932V8.98943V8.98954V8.98965V8.98976V8.98987V8.98997V8.99008V8.99019V8.99029V8.9904V8.9905V8.9906V8.9907V8.9908V8.9909V8.991V8.9911V8.9912V8.9913V8.99139V8.99149V8.99159V8.99168V8.99177V8.99187V8.99196V8.99205V8.99214V8.99223V8.99232V8.99241V8.9925V8.99259V8.99267V8.99276V8.99285V8.99293V8.99301V8.9931V8.99318V8.99326V8.99334V8.99343V8.99351V8.99359V8.99366V8.99374V8.99382V8.9939V8.99397V8.99405V8.99412V8.9942V8.99427V8.99435V8.99442V8.99449V8.99456V8.99463V8.9947V8.99477V8.99484V8.99491V8.99498V8.99504V8.99511V8.99517V8.99524V8.9953V8.99537V8.99543V8.99549V8.99556V8.99562V8.99568V8.99574V8.9958V8.99586V8.99592V8.99598V8.99603V8.99609V8.99615V8.9962V8.99626V8.99632V8.99637V8.99642V8.99648V8.99653V8.99658V8.99663V8.99669V8.99674V8.99679V8.99684V8.99688V8.99693V8.99698V8.99703V8.99708V8.99712V8.99717V8.99722V8.99726V8.9973V8.99735V8.99739V8.99744V8.99748V8.99752V8.99756V8.9976V8.99764V8.99769V8.99773V8.99776V8.9978V8.99784V8.99788V8.99792V8.99795V8.99799V8.99803V8.99806V8.9981V8.99813V8.99817V8.9982V8.99824V8.99827V8.9983V8.99834V8.99837V8.9984V8.99843V8.99846V8.99849V8.99852V8.99855V8.99858V8.99861V8.99864V8.99866V8.99869V8.99872V8.99875V8.99877V8.9988V8.99883V8.99885V8.99888V8.9989V8.99892V8.99895V8.99897V8.99899V8.99902V8.99904V8.99906V8.99908V8.99911V8.99913V8.99915V8.99917V8.99919V8.99921V8.99923V8.99925V8.99927V8.99928V8.9993V8.99932V8.99934V8.99935V8.99937V8.99939V8.9994V8.99942V8.99944V8.99945V8.99947V8.99948V8.9995V8.99951V8.99953V8.99954V8.99955V8.99957V8.99958V8.99959V8.9996V8.99962V8.99963V8.99964V8.99965V8.99966V8.99967V8.99968V8.9997V8.99971V8.99972V8.99973V8.99973V8.99974V8.99975V8.99976V8.99977V8.99978V8.99979V8.9998V8.9998V8.99981V8.99982V8.99983V8.99983V8.99985V8.99986V8.99987V8.99988V8.99989V8.9999V8.99991V8.99992V8.99993V8.99994V8.99994V8.99995V8.99996V8.99997V8.99998V8.99999V8.99999V9V19C19.5 19.663 19.2366 20.2989 18.7678 20.7678C18.2989 21.2366 17.663 21.5 17 21.5H7C6.33696 21.5 5.70107 21.2366 5.23223 20.7678C4.76339 20.2989 4.5 19.663 4.5 19V5C4.5 4.33696 4.76339 3.70107 5.23223 3.23223C5.70107 2.76339 6.33696 2.5 7 2.5H12.9765L13.2175 2.58284L13.2965 2.61H13.3403C13.3622 2.62509 13.383 2.64172 13.4027 2.65976L19.3902 8.64734C19.4083 8.66696 19.4249 8.6878 19.44 8.70968ZM14.3536 5.05645L13.5 4.20289V5.41V8V8.5H14H16.59H17.7971L16.9436 7.64645L14.3536 5.05645ZM12.5 4V3.5H12H7C6.60217 3.5 6.22064 3.65804 5.93934 3.93934C5.65804 4.22064 5.5 4.60217 5.5 5V19C5.5 19.3978 5.65804 19.7794 5.93934 20.0607C6.22065 20.342 6.60218 20.5 7 20.5H17C17.3978 20.5 17.7794 20.342 18.0607 20.0607C18.342 19.7794 18.5 19.3978 18.5 19V10V9.5H18H13C12.8674 9.5 12.7402 9.44732 12.6464 9.35355C12.5527 9.25978 12.5 9.13261 12.5 9V4Z" fill="black" stroke="#0061FF"/>
</svg>
