<svg width="53" height="53" viewBox="0 0 53 53" fill="none" xmlns="http://www.w3.org/2000/svg">
<path d="M33.1251 20.8214H17.8119L20.2537 18.3796C20.5638 18.0175 20.7258 17.5517 20.7074 17.0754C20.689 16.599 20.4916 16.1471 20.1544 15.81C19.8173 15.4729 19.3654 15.2754 18.8891 15.257C18.4127 15.2386 17.9469 15.4006 17.5848 15.7107L11.9062 21.3893C11.7288 21.5652 11.588 21.7746 11.4919 22.0053C11.3958 22.2359 11.3463 22.4833 11.3463 22.7332C11.3463 22.9831 11.3958 23.2305 11.4919 23.4612C11.588 23.6918 11.7288 23.9012 11.9062 24.0771L17.5848 29.7557C17.9469 30.0658 18.4127 30.2278 18.8891 30.2094C19.3654 30.191 19.8173 29.9936 20.1544 29.6564C20.4916 29.3193 20.689 28.8674 20.7074 28.3911C20.7258 27.9147 20.5638 27.4489 20.2537 27.0868L17.8119 24.6071H33.1251C34.3802 24.6071 35.5838 25.1057 36.4713 25.9931C37.3587 26.8806 37.8573 28.0842 37.8573 29.3393C37.8573 30.5943 37.3587 31.798 36.4713 32.6854C35.5838 33.5729 34.3802 34.0714 33.1251 34.0714H24.6073C24.1053 34.0714 23.6238 34.2708 23.2688 34.6258C22.9138 34.9808 22.7144 35.4623 22.7144 35.9643C22.7144 36.4663 22.9138 36.9477 23.2688 37.3027C23.6238 37.6577 24.1053 37.8571 24.6073 37.8571H33.1251C35.3842 37.8571 37.5508 36.9597 39.1482 35.3623C40.7456 33.7649 41.643 31.5984 41.643 29.3393C41.643 27.0802 40.7456 24.9137 39.1482 23.3162C37.5508 21.7188 35.3842 20.8214 33.1251 20.8214Z" fill="black"/>
<path d="M26.5 0C21.2588 0 16.1353 1.5542 11.7774 4.46606C7.4195 7.37791 4.02293 11.5166 2.0172 16.3589C0.011482 21.2011 -0.513306 26.5294 0.509202 31.6699C1.53171 36.8104 4.05559 41.5322 7.76168 45.2383C11.4678 48.9444 16.1896 51.4683 21.3301 52.4908C26.4706 53.5133 31.7989 52.9885 36.6411 50.9828C41.4834 48.9771 45.6221 45.5805 48.534 41.2226C51.4458 36.8647 53 31.7412 53 26.5C53 19.4718 50.2081 12.7314 45.2383 7.76167C40.2686 2.79196 33.5282 0 26.5 0ZM26.5 49.2143C22.0076 49.2143 17.616 47.8821 13.8806 45.3862C10.1453 42.8904 7.23394 39.3429 5.51475 35.1924C3.79556 31.0419 3.34574 26.4748 4.22217 22.0687C5.09861 17.6625 7.26194 13.6152 10.4386 10.4386C13.6152 7.26192 17.6625 5.0986 22.0687 4.22216C26.4748 3.34573 31.0419 3.79555 35.1924 5.51474C39.3429 7.23393 42.8904 10.1453 45.3862 13.8806C47.8821 17.616 49.2143 22.0075 49.2143 26.5C49.2143 32.5242 46.8212 38.3017 42.5614 42.5614C38.3017 46.8212 32.5242 49.2143 26.5 49.2143Z" fill="black"/>
</svg>
