<svg width="20" height="20" viewBox="0 0 20 20" fill="none" xmlns="http://www.w3.org/2000/svg">
<path d="M18.267 9.66732C16.5836 5.75898 13.417 3.33398 10.0003 3.33398C6.58363 3.33398 3.41697 5.75898 1.73363 9.66732C1.68775 9.77246 1.66406 9.88594 1.66406 10.0007C1.66406 10.1154 1.68775 10.2288 1.73363 10.334C3.41697 14.2423 6.58363 16.6673 10.0003 16.6673C13.417 16.6673 16.5836 14.2423 18.267 10.334C18.3129 10.2288 18.3365 10.1154 18.3365 10.0007C18.3365 9.88594 18.3129 9.77246 18.267 9.66732ZM10.0003 15.0007C7.35863 15.0007 4.85863 13.0923 3.41697 10.0007C4.85863 6.90898 7.35863 5.00065 10.0003 5.00065C12.642 5.00065 15.142 6.90898 16.5836 10.0007C15.142 13.0923 12.642 15.0007 10.0003 15.0007ZM10.0003 6.66732C9.34103 6.66732 8.69656 6.86281 8.1484 7.22909C7.60024 7.59536 7.17299 8.11595 6.9207 8.72504C6.66841 9.33413 6.6024 10.0043 6.73102 10.651C6.85963 11.2976 7.1771 11.8915 7.64328 12.3577C8.10945 12.8238 8.7034 13.1413 9.35 13.2699C9.9966 13.3986 10.6668 13.3325 11.2759 13.0802C11.885 12.828 12.4056 12.4007 12.7719 11.8526C13.1381 11.3044 13.3336 10.6599 13.3336 10.0007C13.3336 9.1166 12.9824 8.26875 12.3573 7.64363C11.7322 7.01851 10.8844 6.66732 10.0003 6.66732ZM10.0003 11.6673C9.67066 11.6673 9.34843 11.5696 9.07435 11.3864C8.80027 11.2033 8.58665 10.943 8.4605 10.6385C8.33435 10.3339 8.30135 9.9988 8.36566 9.6755C8.42997 9.3522 8.5887 9.05523 8.82179 8.82214C9.05488 8.58905 9.35185 8.43032 9.67515 8.36601C9.99845 8.3017 10.3336 8.33471 10.6381 8.46085C10.9426 8.587 11.2029 8.80062 11.3861 9.0747C11.5692 9.34878 11.667 9.67102 11.667 10.0007C11.667 10.4427 11.4914 10.8666 11.1788 11.1792C10.8663 11.4917 10.4423 11.6673 10.0003 11.6673Z" fill="#9EA8BA"/>
</svg>
