<svg width="57" height="35" viewBox="0 0 57 35" fill="none" xmlns="http://www.w3.org/2000/svg">
<path d="M14.0951 34.6924C12.8763 34.6924 11.6849 34.331 10.6716 33.6539C9.65826 32.9768 8.86845 32.0144 8.40206 30.8885C7.93567 29.7625 7.81364 28.5235 8.0514 27.3282C8.28917 26.1329 8.87605 25.0349 9.73782 24.1731C10.5996 23.3113 11.6976 22.7245 12.8929 22.4867C14.0882 22.2489 15.3272 22.371 16.4532 22.8374C17.5791 23.3037 18.5415 24.0936 19.2186 25.1069C19.8957 26.1202 20.2571 27.3116 20.2571 28.5303C20.2554 30.1641 19.6056 31.7304 18.4503 32.8856C17.2951 34.0409 15.7288 34.6907 14.0951 34.6924ZM14.0951 24.2533C13.2491 24.2533 12.4222 24.5041 11.7188 24.9741C11.0155 25.4441 10.4673 26.1121 10.1436 26.8936C9.81985 27.6751 9.73515 28.5351 9.90018 29.3648C10.0652 30.1944 10.4726 30.9565 11.0707 31.5547C11.6689 32.1528 12.431 32.5602 13.2606 32.7252C14.0903 32.8903 14.9503 32.8055 15.7318 32.4818C16.5133 32.1581 17.1813 31.6099 17.6513 30.9066C18.1213 30.2032 18.3721 29.3763 18.3721 28.5303C18.3709 27.3964 17.9198 26.3092 17.118 25.5074C16.3162 24.7056 15.229 24.2545 14.0951 24.2533ZM3.76999 19.358C3.52002 19.358 3.2803 19.2587 3.10354 19.0819C2.92679 18.9052 2.82749 18.6654 2.82749 18.4155V10.4042C2.82749 10.1543 2.92679 9.91454 3.10354 9.73778C3.2803 9.56103 3.52002 9.46173 3.76999 9.46173H8.10548C8.35545 9.46173 8.59517 9.56103 8.77193 9.73778C8.94868 9.91454 9.04798 10.1543 9.04798 10.4042C9.04798 10.6542 8.94868 10.8939 8.77193 11.0707C8.59517 11.2474 8.35545 11.3467 8.10548 11.3467H4.71249V18.4155C4.71249 18.5392 4.68811 18.6618 4.64074 18.7761C4.59338 18.8905 4.52396 18.9944 4.43644 19.0819C4.34892 19.1694 4.24502 19.2388 4.13067 19.2862C4.01632 19.3336 3.89376 19.358 3.76999 19.358Z" fill="#222222"/>
<path d="M6.86704 15.3514H3.76999C3.52002 15.3514 3.2803 15.2521 3.10354 15.0753C2.92679 14.8986 2.82749 14.6589 2.82749 14.4089C2.82749 14.1589 2.92679 13.9192 3.10354 13.7424C3.2803 13.5657 3.52002 13.4664 3.76999 13.4664H6.86704C7.117 13.4664 7.35673 13.5657 7.53348 13.7424C7.71024 13.9192 7.80954 14.1589 7.80954 14.4089C7.80954 14.6589 7.71024 14.8986 7.53348 15.0753C7.35673 15.2521 7.117 15.3514 6.86704 15.3514ZM15.7284 19.3579C15.4911 19.3579 15.2626 19.2684 15.0884 19.1072L12.3392 16.5625V18.4136C12.3392 18.6635 12.2399 18.9033 12.0631 19.08C11.8864 19.2568 11.6466 19.3561 11.3967 19.3561C11.1467 19.3561 10.907 19.2568 10.7302 19.08C10.5535 18.9033 10.4542 18.6635 10.4542 18.4136V10.4023C10.4542 10.1524 10.5535 9.91263 10.7302 9.73588C10.907 9.55913 11.1467 9.45983 11.3967 9.45983H13.7247C14.4998 9.45909 15.2441 9.76389 15.7961 10.3082C16.3481 10.8524 16.6633 11.5923 16.6735 12.3674C16.6836 13.1426 16.3879 13.8905 15.8504 14.449C15.3129 15.0076 14.5769 15.3318 13.8019 15.3514L16.3684 17.7208C16.5075 17.8495 16.6045 18.0172 16.6469 18.2019C16.6893 18.3866 16.675 18.5798 16.6059 18.7563C16.5368 18.9327 16.4161 19.0843 16.2595 19.1911C16.103 19.2979 15.9179 19.3551 15.7284 19.3551V19.3579ZM12.3354 13.4664H13.7209C14.0023 13.4664 14.2723 13.3546 14.4713 13.1556C14.6703 12.9565 14.7821 12.6866 14.7821 12.4051C14.7821 12.1237 14.6703 11.8537 14.4713 11.6547C14.2723 11.4557 14.0023 11.3439 13.7209 11.3439H12.3354V13.4664ZM23.3551 19.3579H19.0196C18.7696 19.3579 18.5299 19.2586 18.3532 19.0819C18.1764 18.9051 18.0771 18.6654 18.0771 18.4154V10.4042C18.0771 10.1542 18.1764 9.91452 18.3532 9.73777C18.5299 9.56101 18.7696 9.46171 19.0196 9.46171H23.3551C23.6051 9.46171 23.8448 9.56101 24.0215 9.73777C24.1983 9.91452 24.2976 10.1542 24.2976 10.4042C24.2976 10.6542 24.1983 10.8939 24.0215 11.0707C23.8448 11.2474 23.6051 11.3467 23.3551 11.3467H19.9621V17.4729H23.3551C23.6051 17.4729 23.8448 17.5722 24.0215 17.749C24.1983 17.9258 24.2976 18.1655 24.2976 18.4154C24.2976 18.6654 24.1983 18.9051 24.0215 19.0819C23.8448 19.2586 23.6051 19.3579 23.3551 19.3579Z" fill="#222222"/>
<path d="M22.0652 15.3515H19.0237C18.7738 15.3515 18.534 15.2522 18.3573 15.0754C18.1805 14.8987 18.0812 14.6589 18.0812 14.409C18.0812 14.159 18.1805 13.9193 18.3573 13.7425C18.534 13.5658 18.7738 13.4665 19.0237 13.4665H22.0652C22.3151 13.4665 22.5549 13.5658 22.7316 13.7425C22.9084 13.9193 23.0077 14.159 23.0077 14.409C23.0077 14.6589 22.9084 14.8987 22.7316 15.0754C22.5549 15.2522 22.3151 15.3515 22.0652 15.3515ZM30.9812 19.358H26.6504C26.4005 19.358 26.1607 19.2587 25.984 19.082C25.8072 18.9052 25.7079 18.6655 25.7079 18.4155V10.4043C25.7079 10.1543 25.8072 9.9146 25.984 9.73785C26.1607 9.56109 26.4005 9.46179 26.6504 9.46179H30.9812C31.2312 9.46179 31.4709 9.56109 31.6476 9.73785C31.8244 9.9146 31.9237 10.1543 31.9237 10.4043C31.9237 10.6543 31.8244 10.894 31.6476 11.0707C31.4709 11.2475 31.2312 11.3468 30.9812 11.3468H27.5929V17.473H30.9812C31.2312 17.473 31.4709 17.5723 31.6476 17.7491C31.8244 17.9258 31.9237 18.1656 31.9237 18.4155C31.9237 18.6655 31.8244 18.9052 31.6476 19.082C31.4709 19.2587 31.2312 19.358 30.9812 19.358Z" fill="#222222"/>
<path d="M29.6911 15.3514H26.6496C26.3997 15.3514 26.1599 15.2521 25.9832 15.0754C25.8064 14.8986 25.7071 14.6589 25.7071 14.4089C25.7071 14.159 25.8064 13.9192 25.9832 13.7425C26.1599 13.5657 26.3997 13.4664 26.6496 13.4664H29.6911C29.941 13.4664 30.1808 13.5657 30.3575 13.7425C30.5343 13.9192 30.6336 14.159 30.6336 14.4089C30.6336 14.6589 30.5343 14.8986 30.3575 15.0754C30.1808 15.2521 29.941 15.3514 29.6911 15.3514ZM39.4403 29.5426H19.3179C19.068 29.5426 18.8282 29.4433 18.6515 29.2666C18.4747 29.0898 18.3754 28.8501 18.3754 28.6001C18.3754 28.3501 18.4747 28.1104 18.6515 27.9337C18.8282 27.7569 19.068 27.6576 19.3179 27.6576H39.4403C39.6902 27.6576 39.93 27.7569 40.1067 27.9337C40.2835 28.1104 40.3828 28.3501 40.3828 28.6001C40.3828 28.8501 40.2835 29.0898 40.1067 29.2666C39.93 29.4433 39.6902 29.5426 39.4403 29.5426ZM8.87507 29.5426H5.65173C5.40176 29.5426 5.16203 29.4433 4.98528 29.2666C4.80853 29.0898 4.70923 28.8501 4.70923 28.6001V26.668H3.80632C3.55635 26.668 3.31662 26.5687 3.13987 26.3919C2.96312 26.2152 2.86382 25.9755 2.86382 25.7255V22.7472C2.86382 22.4972 2.96312 22.2575 3.13987 22.0808C3.31662 21.904 3.55635 21.8047 3.80632 21.8047C4.05628 21.8047 4.29601 21.904 4.47276 22.0808C4.64952 22.2575 4.74881 22.4972 4.74881 22.7472V24.783H5.65361C5.90358 24.783 6.14331 24.8823 6.32006 25.059C6.49681 25.2358 6.59611 25.4755 6.59611 25.7255V27.6576H8.87695C9.12692 27.6576 9.36665 27.7569 9.5434 27.9337C9.72015 28.1104 9.81945 28.3501 9.81945 28.6001C9.81945 28.8501 9.72015 29.0898 9.5434 29.2666C9.36665 29.4433 9.12692 29.5426 8.87695 29.5426H8.87507Z" fill="#222222"/>
<path d="M54.1719 29.5426H49.8836C49.6336 29.5426 49.3939 29.4433 49.2171 29.2665C49.0404 29.0898 48.9411 28.8501 48.9411 28.6001C48.9411 28.3501 49.0404 28.1104 49.2171 27.9336C49.3939 27.7569 49.6336 27.6576 49.8836 27.6576H54.1719C54.4219 27.6576 54.6616 27.5583 54.8384 27.3815C55.0151 27.2048 55.1144 26.9651 55.1144 26.7151V15.2703L48.9269 5.98486H35.0392C34.7893 5.98486 34.5495 5.88556 34.3728 5.70881C34.196 5.53206 34.0967 5.29233 34.0967 5.04236V1.885H0.942498C0.692532 1.885 0.452804 1.7857 0.276051 1.60894C0.0992986 1.43219 0 1.19246 0 0.942498C0 0.692532 0.0992986 0.452804 0.276051 0.276051C0.452804 0.0992988 0.692532 0 0.942498 0H35.0392C35.2892 0 35.5289 0.0992988 35.7057 0.276051C35.8824 0.452804 35.9817 0.692532 35.9817 0.942498V4.09987H49.4312C49.5863 4.09984 49.739 4.13811 49.8758 4.21127C50.0126 4.28444 50.1292 4.39023 50.2153 4.51928L56.8411 14.4626C56.9444 14.6175 56.9995 14.7995 56.9994 14.9857V26.7198C56.9982 27.4689 56.6997 28.1869 56.1696 28.7161C55.6395 29.2453 54.921 29.5426 54.1719 29.5426Z" fill="#222222"/>
<path d="M20.2471 6.46347H17.8334C17.5834 6.46347 17.3437 6.36417 17.1669 6.18742C16.9902 6.01067 16.8909 5.77094 16.8909 5.52097C16.8909 5.27101 16.9902 5.03128 17.1669 4.85453C17.3437 4.67778 17.5834 4.57848 17.8334 4.57848H20.2471C20.4971 4.57848 20.7368 4.67778 20.9135 4.85453C21.0903 5.03128 21.1896 5.27101 21.1896 5.52097C21.1896 5.77094 21.0903 6.01067 20.9135 6.18742C20.7368 6.36417 20.4971 6.46347 20.2471 6.46347ZM56.0573 16.1778H41.6654C41.4154 16.1778 41.1757 16.0785 40.9989 15.9017C40.8222 15.725 40.7229 15.4853 40.7229 15.2353V7.44084C40.7229 7.19088 40.8222 6.95115 40.9989 6.7744C41.1757 6.59764 41.4154 6.49835 41.6654 6.49835H51.0338C51.2838 6.49835 51.5235 6.59764 51.7002 6.7744C51.877 6.95115 51.9763 7.19088 51.9763 7.44084C51.9763 7.69081 51.877 7.93054 51.7002 8.10729C51.5235 8.28404 51.2838 8.38334 51.0338 8.38334H42.6079V14.2928H56.0573C56.3073 14.2928 56.547 14.3921 56.7237 14.5689C56.9005 14.7456 56.9998 14.9853 56.9998 15.2353C56.9998 15.4853 56.9005 15.725 56.7237 15.9017C56.547 16.0785 56.3073 16.1778 56.0573 16.1778ZM52.8594 23.0929C52.6094 23.0929 52.3697 22.9936 52.193 22.8168C52.0162 22.6401 51.9169 22.4004 51.9169 22.1504V20.4633C51.9169 20.2134 52.0162 19.9736 52.193 19.7969C52.3697 19.6201 52.6094 19.5208 52.8594 19.5208H56.0573C56.3073 19.5208 56.547 19.6201 56.7237 19.7969C56.9005 19.9736 56.9998 20.2134 56.9998 20.4633C56.9998 20.7133 56.9005 20.953 56.7237 21.1298C56.547 21.3065 56.3073 21.4058 56.0573 21.4058H53.8019V22.1504C53.8019 22.4004 53.7026 22.6401 53.5259 22.8168C53.3491 22.9936 53.1094 23.0929 52.8594 23.0929ZM44.6616 34.6922C43.4429 34.692 42.2516 34.3305 41.2384 33.6533C40.2251 32.9761 39.4355 32.0136 38.9692 30.8876C38.503 29.7616 38.3811 28.5227 38.619 27.3274C38.8568 26.1322 39.4438 25.0343 40.3056 24.1726C41.1674 23.3109 42.2654 22.7241 43.4607 22.4865C44.656 22.2488 45.8949 22.3708 47.0208 22.8373C48.1467 23.3037 49.1091 24.0935 49.7861 25.1068C50.4632 26.1201 50.8246 27.3115 50.8246 28.5302C50.8228 30.1641 50.1729 31.7305 49.0175 32.8858C47.862 34.0411 46.2955 34.6907 44.6616 34.6922ZM44.6616 24.2531C43.8157 24.2533 42.9888 24.5043 42.2856 24.9744C41.5824 25.4445 41.0343 26.1125 40.7107 26.8941C40.3872 27.6756 40.3026 28.5356 40.4677 29.3652C40.6329 30.1948 41.0403 30.9568 41.6385 31.5548C42.2367 32.1529 42.9988 32.5602 43.8284 32.7251C44.6581 32.8901 45.518 32.8053 46.2995 32.4816C47.081 32.1578 47.7489 31.6096 48.2188 30.9063C48.6887 30.2029 48.9396 29.3761 48.9396 28.5302C48.9381 27.3961 48.4868 26.309 47.6849 25.5072C46.8829 24.7053 45.7956 24.2544 44.6616 24.2531ZM14.0992 29.9449C13.7244 29.9445 13.365 29.7954 13.1001 29.5302C12.8363 29.2644 12.6874 28.9056 12.6854 28.5311C12.685 28.4393 12.6945 28.3476 12.7137 28.2578C12.73 28.1645 12.7553 28.0729 12.7891 27.9845C12.8274 27.9029 12.8715 27.8241 12.9211 27.7488C12.9702 27.6685 13.0305 27.5955 13.1001 27.5321C13.1627 27.4652 13.2322 27.4051 13.3075 27.353C13.386 27.3034 13.4679 27.2593 13.5525 27.221C13.6374 27.1928 13.7316 27.1645 13.8164 27.1456C14.0454 27.1005 14.282 27.1121 14.5054 27.1794C14.7288 27.2468 14.9324 27.3679 15.0982 27.5321C15.1649 27.5958 15.222 27.6688 15.2679 27.7488C15.3209 27.822 15.3652 27.901 15.3998 27.9845C15.4366 28.0727 15.465 28.1642 15.4847 28.2578C15.5039 28.3476 15.5133 28.4393 15.5129 28.5311C15.5129 28.9061 15.364 29.2657 15.0989 29.5308C14.8337 29.7959 14.4741 29.9449 14.0992 29.9449Z" fill="#222222"/>
<path d="M44.6631 29.945C44.5681 29.945 44.4734 29.9355 44.3803 29.9168C44.2896 29.897 44.2009 29.8686 44.1155 29.8319C44.0304 29.7989 43.9487 29.7579 43.8714 29.7094C43.7978 29.6551 43.7285 29.5952 43.664 29.5303C43.5966 29.4646 43.5362 29.392 43.484 29.3136C43.4351 29.2348 43.3914 29.1529 43.353 29.0685C43.3219 28.9824 43.2967 28.8942 43.2776 28.8046C43.2387 28.6245 43.2387 28.4381 43.2776 28.258C43.2967 28.1684 43.3219 28.0802 43.353 27.9941C43.3914 27.9097 43.4351 27.8278 43.484 27.749C43.5338 27.6689 43.5944 27.5959 43.664 27.5323C43.7285 27.4674 43.7978 27.4075 43.8714 27.3532C43.9553 27.306 44.0307 27.2589 44.1155 27.2212C44.2003 27.1835 44.2955 27.1647 44.3803 27.1458C44.5634 27.1081 44.7523 27.1081 44.9355 27.1458C45.0253 27.1652 45.1137 27.1904 45.2003 27.2212C45.2846 27.2595 45.3662 27.3036 45.4444 27.3532C45.5213 27.4074 45.5941 27.4673 45.6621 27.5323C45.7288 27.596 45.7859 27.669 45.8318 27.749C45.8849 27.8254 45.9292 27.9076 45.9637 27.9941C46.0383 28.1633 46.0769 28.3463 46.0769 28.5313C46.0769 28.7163 46.0383 28.8992 45.9637 29.0685C45.8902 29.2385 45.7882 29.3947 45.6621 29.5303C45.5941 29.5953 45.5213 29.6552 45.4444 29.7094C45.368 29.7595 45.2861 29.8007 45.2003 29.8319C45.1155 29.8702 45.0267 29.8986 44.9355 29.9168C44.8458 29.9351 44.7546 29.9445 44.6631 29.945ZM34.9516 26.3183H22.0648C21.8148 26.3183 21.5751 26.219 21.3984 26.0423C21.2216 25.8655 21.1223 25.6258 21.1223 25.3758C21.1223 25.1258 21.2216 24.8861 21.3984 24.7094C21.5751 24.5326 21.8148 24.4333 22.0648 24.4333H34.0091V9.32602C34.0091 9.07606 34.1084 8.83633 34.2851 8.65957C34.4619 8.48282 34.7016 8.38352 34.9516 8.38352C35.2015 8.38352 35.4413 8.48282 35.618 8.65957C35.7948 8.83633 35.8941 9.07606 35.8941 9.32602V25.3758C35.8941 25.6258 35.7948 25.8655 35.618 26.0423C35.4413 26.219 35.2015 26.3183 34.9516 26.3183ZM14.505 6.46366H2.55417C2.3042 6.46366 2.06447 6.36436 1.88772 6.18761C1.71097 6.01085 1.61167 5.77112 1.61167 5.52116C1.61167 5.27119 1.71097 5.03147 1.88772 4.85471C2.06447 4.67796 2.3042 4.57866 2.55417 4.57866H14.505C14.755 4.57866 14.9947 4.67796 15.1715 4.85471C15.3482 5.03147 15.4475 5.27119 15.4475 5.52116C15.4475 5.77112 15.3482 6.01085 15.1715 6.18761C14.9947 6.36436 14.755 6.46366 14.505 6.46366ZM9.29585 23.6897H0.942498C0.692532 23.6897 0.452804 23.5904 0.276051 23.4136C0.0992986 23.2369 0 22.9972 0 22.7472C0 22.4972 0.0992986 22.2575 0.276051 22.0807C0.452804 21.904 0.692532 21.8047 0.942498 21.8047H9.29585C9.54582 21.8047 9.78555 21.904 9.9623 22.0807C10.1391 22.2575 10.2384 22.4972 10.2384 22.7472C10.2384 22.9972 10.1391 23.2369 9.9623 23.4136C9.78555 23.5904 9.54582 23.6897 9.29585 23.6897Z" fill="#222222"/>
</svg>
