<svg width="16" height="16" viewBox="0 0 16 16" fill="none" xmlns="http://www.w3.org/2000/svg">
<path d="M5.80683 5.13995L7.3335 3.60662V9.99995C7.3335 10.1768 7.40373 10.3463 7.52876 10.4714C7.65378 10.5964 7.82335 10.6666 8.00016 10.6666C8.17697 10.6666 8.34654 10.5964 8.47157 10.4714C8.59659 10.3463 8.66683 10.1768 8.66683 9.99995V3.60662L10.1935 5.13995C10.2555 5.20244 10.3292 5.25203 10.4104 5.28588C10.4917 5.31972 10.5788 5.33715 10.6668 5.33715C10.7548 5.33715 10.842 5.31972 10.9232 5.28588C11.0045 5.25203 11.0782 5.20244 11.1402 5.13995C11.2026 5.07798 11.2522 5.00424 11.2861 4.923C11.3199 4.84176 11.3374 4.75463 11.3374 4.66662C11.3374 4.57861 11.3199 4.49147 11.2861 4.41023C11.2522 4.32899 11.2026 4.25526 11.1402 4.19328L8.4735 1.52662C8.41009 1.46592 8.33533 1.41835 8.2535 1.38662C8.09119 1.31994 7.90914 1.31994 7.74683 1.38662C7.665 1.41835 7.59023 1.46592 7.52683 1.52662L4.86016 4.19328C4.798 4.25544 4.7487 4.32924 4.71506 4.41045C4.68142 4.49167 4.6641 4.57871 4.6641 4.66662C4.6641 4.75452 4.68142 4.84157 4.71506 4.92278C4.7487 5.004 4.798 5.07779 4.86016 5.13995C4.92232 5.20211 4.99612 5.25142 5.07733 5.28506C5.15854 5.3187 5.24559 5.33601 5.3335 5.33601C5.4214 5.33601 5.50845 5.3187 5.58966 5.28506C5.67088 5.25142 5.74467 5.20211 5.80683 5.13995ZM14.0002 7.99995C13.8234 7.99995 13.6538 8.07019 13.5288 8.19521C13.4037 8.32024 13.3335 8.48981 13.3335 8.66662V12.6666C13.3335 12.8434 13.2633 13.013 13.1382 13.138C13.0132 13.263 12.8436 13.3333 12.6668 13.3333H3.3335C3.15669 13.3333 2.98712 13.263 2.86209 13.138C2.73707 13.013 2.66683 12.8434 2.66683 12.6666V8.66662C2.66683 8.48981 2.59659 8.32024 2.47157 8.19521C2.34654 8.07019 2.17697 7.99995 2.00016 7.99995C1.82335 7.99995 1.65378 8.07019 1.52876 8.19521C1.40373 8.32024 1.3335 8.48981 1.3335 8.66662V12.6666C1.3335 13.1971 1.54421 13.7058 1.91928 14.0808C2.29436 14.4559 2.80306 14.6666 3.3335 14.6666H12.6668C13.1973 14.6666 13.706 14.4559 14.081 14.0808C14.4561 13.7058 14.6668 13.1971 14.6668 12.6666V8.66662C14.6668 8.48981 14.5966 8.32024 14.4716 8.19521C14.3465 8.07019 14.177 7.99995 14.0002 7.99995Z" fill="#0061FF"/>
</svg>
