<svg width="59" height="59" viewBox="0 0 59 59" fill="none" xmlns="http://www.w3.org/2000/svg">
<path d="M14.1361 6.35562H19.9145L23.9976 2.27248C25.5126 0.757493 27.5063 0 29.5 0C31.4937 0 33.4874 0.757493 35.0024 2.27248L39.0855 6.35562H44.8639C47.004 6.35562 48.9498 7.23139 50.3606 8.63937C51.7686 10.0473 52.6444 11.9932 52.6444 14.1361V19.9145L56.7275 23.9976C58.2425 25.5126 59 27.5063 59 29.5C59 31.4909 58.2425 33.4874 56.7275 35.0024L52.6444 39.0855V44.8639C52.6444 47.004 51.7686 48.9498 50.3606 50.3606C48.9527 51.7686 47.0068 52.6444 44.8639 52.6444H39.0855L35.0024 56.7275C33.4874 58.2425 31.4937 59 29.5 59C27.5091 59 25.5126 58.2425 23.9976 56.7275L19.9145 52.6444H14.1361C11.996 52.6444 10.0502 51.7686 8.63937 50.3606C7.23139 48.9527 6.35562 47.0068 6.35562 44.8639V39.0855L2.27248 35.0024C0.757493 33.4874 0 31.4937 0 29.5C0 27.5063 0.757493 25.5126 2.27248 23.9976L6.35562 19.9145V14.1361C6.35562 11.996 7.23139 10.0502 8.63937 8.63937C10.0473 7.23139 11.9932 6.35562 14.1361 6.35562ZM18.5375 30.2603C17.932 29.6802 17.9151 28.72 18.4952 28.1146C19.0753 27.5119 20.0356 27.4922 20.641 28.0723L27.0839 34.2731L38.2689 21.528C38.8208 20.8972 39.7783 20.8353 40.4062 21.3844C41.037 21.9363 41.0989 22.8938 40.5498 23.5217L28.3539 37.4213C28.3286 37.4523 28.3004 37.4861 28.2694 37.517C27.6893 38.1197 26.7291 38.1394 26.1265 37.5593L18.5403 30.2575L18.5375 30.2603ZM29.5 11.6665C34.4223 11.6665 38.88 13.663 42.1099 16.8901C45.337 20.1172 47.3335 24.5749 47.3335 29.5C47.3335 34.4223 45.337 38.88 42.1099 42.1099C38.8828 45.337 34.4251 47.3335 29.5 47.3335C24.5777 47.3335 20.12 45.337 16.8901 42.1099C13.663 38.8828 11.6665 34.4251 11.6665 29.5C11.6665 24.5777 13.663 20.12 16.8901 16.8901C20.1172 13.663 24.5749 11.6665 29.5 11.6665ZM39.9585 19.0415C37.2833 16.3664 33.586 14.7078 29.5 14.7078C25.4169 14.7078 21.7195 16.3635 19.0415 19.0415C16.3664 21.7167 14.7078 25.414 14.7078 29.5C14.7078 33.5831 16.3635 37.2805 19.0415 39.9585C21.7167 42.6336 25.414 44.2922 29.5 44.2922C33.5831 44.2922 37.2805 42.6365 39.9585 39.9585C42.6336 37.2833 44.2922 33.586 44.2922 29.5C44.2922 25.4169 42.6365 21.7195 39.9585 19.0415ZM20.5452 9.39968H14.1389C12.838 9.39968 11.6524 9.93189 10.7936 10.7936C9.93471 11.6524 9.39968 12.838 9.39968 14.1389V20.5452C9.39968 20.9339 9.25043 21.3225 8.95475 21.6209L4.42387 26.1518C3.50306 27.0726 3.04405 28.2863 3.04405 29.5028C3.04405 30.7193 3.50306 31.933 4.42387 32.8538L8.94631 37.3762C9.2279 37.6522 9.39968 38.0352 9.39968 38.4604V44.8667C9.39968 46.1677 9.93471 47.3532 10.7936 48.2121C11.6524 49.0709 12.838 49.606 14.1389 49.606H20.5452C20.9339 49.606 21.3225 49.7552 21.6209 50.0509L26.1518 54.5818C27.0726 55.5026 28.2863 55.9616 29.5028 55.9616C30.7193 55.9616 31.933 55.5026 32.8538 54.5818L37.3762 50.0593C37.6522 49.7777 38.0352 49.606 38.4604 49.606H44.8667C46.1677 49.606 47.3532 49.0709 48.2121 48.2121C49.0737 47.3532 49.606 46.1677 49.606 44.8667V38.4604C49.606 38.0718 49.7552 37.6832 50.0509 37.3847L54.5818 32.8538C55.5026 31.933 55.9616 30.7193 55.9616 29.5028C55.9616 28.2863 55.5026 27.0726 54.5818 26.1518L50.0593 21.6294C49.7777 21.3534 49.606 20.9705 49.606 20.5452V14.1389C49.606 12.838 49.0737 11.6524 48.2121 10.7936C47.3532 9.93189 46.1677 9.39968 44.8667 9.39968H38.4604C38.0718 9.39968 37.6832 9.25043 37.3847 8.95475L32.8538 4.42387C31.933 3.50306 30.7193 3.04405 29.5028 3.04405C28.2863 3.04405 27.0726 3.50306 26.1518 4.42387L21.6294 8.94631C21.3534 9.2279 20.9705 9.39968 20.5452 9.39968Z" fill="black"/>
</svg>
