<svg width="47" height="17" viewBox="0 0 47 17" fill="none" xmlns="http://www.w3.org/2000/svg">
<path d="M12.5603 15.5389C12.3778 15.6046 12.1424 15.6794 11.854 15.7634C11.5656 15.8473 11.2316 15.924 10.852 15.9933C10.4724 16.0627 10.049 16.1211 9.58176 16.1685C9.11453 16.216 8.60715 16.2398 8.05963 16.2398C6.66525 16.2398 5.46069 16.0317 4.44594 15.6156C3.43118 15.1994 2.59529 14.6373 1.93826 13.9292C1.28122 13.2211 0.793918 12.3979 0.476353 11.4598C0.158786 10.5218 -8.71614e-07 9.52705 0 8.47579C-8.71614e-07 7.23473 0.200761 6.09589 0.602283 5.05923C1.0038 4.02258 1.5787 3.12828 2.327 2.37633C3.07528 1.62441 3.98053 1.04038 5.04274 0.624241C6.10494 0.208139 7.29673 7.06316e-05 8.61811 5.31993e-05C9.53065 7.06316e-05 10.3173 0.0566148 10.978 0.169786C11.6386 0.282956 12.1661 0.390623 12.5603 0.492812V4.8621C12.3997 4.7672 12.2044 4.67049 11.9745 4.57192C11.7445 4.47338 11.4853 4.38393 11.197 4.30361C10.9086 4.22333 10.5929 4.15762 10.2497 4.10651C9.90662 4.05543 9.5416 4.0299 9.15469 4.0299C8.60715 4.02991 8.08152 4.10843 7.5778 4.26533C7.07407 4.4223 6.6324 4.6687 6.25278 5.00451C5.87316 5.34034 5.57019 5.76739 5.34389 6.28571C5.11757 6.80405 5.00441 7.42095 5.00442 8.13638C5.00441 8.74232 5.09567 9.2953 5.27818 9.79537C5.46069 10.2955 5.72715 10.7225 6.07757 11.0766C6.42798 11.4307 6.85688 11.7063 7.36427 11.9034C7.87164 12.1005 8.44654 12.199 9.08898 12.199C9.46129 12.199 9.81719 12.1716 10.1567 12.1169C10.4961 12.0622 10.8119 11.991 11.1039 11.9034C11.3959 11.8158 11.6642 11.7209 11.9088 11.6187C12.1533 11.5165 12.3705 11.4179 12.5603 11.323V15.5389ZM29.9608 8.0706C29.9608 9.31897 29.7564 10.445 29.3476 11.4488C28.9387 12.4526 28.3748 13.3105 27.6557 14.0222C26.9366 14.734 26.0934 15.2816 25.1261 15.6648C24.1588 16.0481 23.1167 16.2397 21.9997 16.2397C20.9193 16.2397 19.9027 16.0572 18.95 15.6922C17.9973 15.3272 17.165 14.8034 16.4532 14.1208C15.7415 13.4382 15.1793 12.6078 14.7669 11.6295C14.3544 10.6513 14.1482 9.54892 14.1482 8.32245C14.1482 7.09598 14.3453 5.97173 14.7395 4.94966C15.1337 3.92762 15.6849 3.04976 16.393 2.31606C17.1012 1.58238 17.9498 1.01296 18.939 0.607775C19.9282 0.202613 21.0178 1.74323e-05 22.2078 0C23.332 1.74323e-05 24.3687 0.188011 25.3177 0.563966C26.2668 0.939955 27.0844 1.47652 27.7707 2.1737C28.4569 2.87089 28.9935 3.71774 29.3804 4.71423C29.7673 5.71074 29.9608 6.82954 29.9608 8.0706ZM24.9454 8.202C24.9454 7.53037 24.8779 6.9354 24.7428 6.41706C24.6078 5.89874 24.418 5.46255 24.1734 5.10846C23.9288 4.75441 23.6368 4.48611 23.2974 4.30358C22.9579 4.12109 22.5801 4.02983 22.164 4.02982C21.631 4.02983 21.1748 4.13936 20.7952 4.35835C20.4155 4.57738 20.1053 4.87303 19.8644 5.24534C19.6234 5.61767 19.4482 6.05204 19.3387 6.54846C19.2292 7.04489 19.1745 7.57418 19.1745 8.1363C19.1745 8.86634 19.2548 9.48871 19.4154 10.0034C19.576 10.5181 19.7913 10.9378 20.0615 11.2627C20.3316 11.5876 20.6418 11.8248 20.9923 11.9745C21.3427 12.1241 21.7077 12.199 22.0873 12.199C22.4523 12.199 22.8064 12.1205 23.1495 11.9635C23.4926 11.8066 23.7974 11.5657 24.0639 11.2408C24.3304 10.9159 24.5439 10.5016 24.7045 9.9979C24.8651 9.49418 24.9454 8.89555 24.9454 8.202ZM46.9999 7.91728C46.9999 9.14375 46.8046 10.2534 46.414 11.2463C46.0235 12.2391 45.4723 13.0842 44.7605 13.7813C44.0487 14.4785 43.1909 15.0169 42.1871 15.3965C41.1833 15.7762 40.0682 15.966 38.8417 15.966H32.1947V0.262831H38.6994C39.7579 0.26284 40.6978 0.352277 41.5191 0.531115C42.3404 0.709989 43.0595 0.963681 43.6764 1.29218C44.2933 1.62071 44.8116 2.01495 45.2314 2.47486C45.6511 2.93479 45.9924 3.44944 46.2553 4.01886C46.5181 4.58831 46.7079 5.20156 46.8247 5.85857C46.9415 6.51562 46.9999 7.20185 46.9999 7.91728ZM41.9736 7.96114C41.9736 7.45012 41.8969 6.95369 41.7436 6.47185C41.5903 5.99004 41.3567 5.56296 41.0428 5.19063C40.7289 4.81832 40.331 4.52083 39.8492 4.29816C39.3673 4.07551 38.7979 3.96418 38.1409 3.96417H36.9254V12.2647H38.2504C38.8271 12.2647 39.3454 12.1607 39.8054 11.9526C40.2653 11.7446 40.6559 11.4525 40.9771 11.0766C41.2983 10.7006 41.5447 10.248 41.7162 9.71871C41.8878 9.18944 41.9736 8.60359 41.9736 7.96114Z" fill="black"/>
</svg>
