<svg width="32" height="32" viewBox="0 0 32 32" fill="none" xmlns="http://www.w3.org/2000/svg">
<path d="M15.9994 2.66602C13.3623 2.66602 10.7844 3.448 8.59175 4.91309C6.3991 6.37817 4.69013 8.46055 3.68096 10.8969C2.67179 13.3333 2.40775 16.0141 2.92222 18.6006C3.43669 21.187 4.70656 23.5627 6.57126 25.4274C8.43597 27.2921 10.8117 28.562 13.3982 29.0765C15.9846 29.591 18.6655 29.3269 21.1018 28.3177C23.5382 27.3086 25.6205 25.5996 27.0856 23.407C28.5507 21.2143 29.3327 18.6364 29.3327 15.9993C29.3327 14.2484 28.9878 12.5146 28.3177 10.8969C27.6477 9.27923 26.6656 7.80937 25.4274 6.57126C24.1893 5.33314 22.7195 4.35102 21.1018 3.68096C19.4841 3.01089 17.7503 2.66602 15.9994 2.66602ZM15.9994 26.666C13.8897 26.666 11.8274 26.0404 10.0733 24.8684C8.31915 23.6963 6.95198 22.0304 6.14464 20.0813C5.33731 18.1322 5.12607 15.9875 5.53765 13.9184C5.94922 11.8493 6.96512 9.94864 8.45688 8.45688C9.94864 6.96512 11.8493 5.94922 13.9184 5.53764C15.9875 5.12606 18.1322 5.3373 20.0813 6.14463C22.0304 6.95197 23.6963 8.31914 24.8684 10.0733C26.0404 11.8274 26.666 13.8897 26.666 15.9993C26.666 18.8283 25.5422 21.5414 23.5418 23.5418C21.5414 25.5422 18.8283 26.666 15.9994 26.666ZM21.3327 14.666H10.666C10.3124 14.666 9.97326 14.8065 9.72321 15.0565C9.47316 15.3066 9.33269 15.6457 9.33269 15.9993C9.33269 16.353 9.47316 16.6921 9.72321 16.9422C9.97326 17.1922 10.3124 17.3327 10.666 17.3327H21.3327C21.6863 17.3327 22.0255 17.1922 22.2755 16.9422C22.5255 16.6921 22.666 16.353 22.666 15.9993C22.666 15.6457 22.5255 15.3066 22.2755 15.0565C22.0255 14.8065 21.6863 14.666 21.3327 14.666Z" fill="black"/>
</svg>
